<svg width="32" height="32" viewBox="0 0 32 32" fill="none" xmlns="http://www.w3.org/2000/svg">
  <!-- Background circle -->
  <circle cx="16" cy="16" r="15" fill="#22c55e"/>
  
  <!-- Chat bubble -->
  <path d="M25 14c0-2.76-2.24-5-5-5H12c-2.76 0-5 2.24-5 5v4c0 2.76 2.24 5 5 5h2.5l2.5 2.5 2.5-2.5H20c2.76 0 5-2.24 5-5v-4z" fill="#ffffff"/>
  
  <!-- Simple salad leaves -->
  <ellipse cx="12" cy="14" rx="1.5" ry="1" fill="#22c55e" transform="rotate(-15 12 14)"/>
  <ellipse cx="16" cy="13" rx="2" ry="1" fill="#22c55e" transform="rotate(25 16 13)"/>
  <ellipse cx="20" cy="14" rx="1.5" ry="1" fill="#22c55e" transform="rotate(-35 20 14)"/>
  
  <!-- OS text -->
  <text x="16" y="20" text-anchor="middle" font-family="Arial, sans-serif" font-size="6" font-weight="bold" fill="#22c55e">OS</text>
</svg>